<svg xmlns="http://www.w3.org/2000/svg" width="26" height="20" viewBox="0 0 26 20" fill="none"><g clip-path="url(#a)" fill="#fff"><path d="M10.36 9.11c.64.63 1.21 1.19 1.66 1.63.26.26.54.39.8.4.24 0 .52-.14.78-.4C15.8 8.58 21.19 3.27 23.77.73 23.09.27 22.28 0 21.4 0H4.23c-.88 0-1.7.27-2.38.73 1.72 1.69 5.76 5.68 8.5 8.37zm14.54 9.02c.46-.67.72-1.49.72-2.36V4.23c0-.89-.28-1.72-.75-2.4l-7.98 7.86 8 8.44z"/><path d="M14.69 11.86c-.55.54-1.2.84-1.87.85-.7-.01-1.34-.3-1.9-.85-.31-.3-.68-.67-1.09-1.07l-8.01 8.45c.68.48 1.51.76 2.41.76H21.4c.89 0 1.72-.28 2.41-.76l-8.02-8.46c-.41.41-.78.77-1.09 1.07zM.74 1.84C.27 2.52 0 3.34 0 4.23v11.55c0 .87.27 1.69.72 2.36l8-8.44C6.01 7.03 2.35 3.42.74 1.84"/></g><defs><clipPath id="a"><path fill="#fff" d="M0 0h25.62v20H0z"/></clipPath></defs></svg>