<svg xmlns="http://www.w3.org/2000/svg" width="182" height="1" viewBox="0 0 182 1" fill="none"><path d="M181.5 1a.5.5 0 0 0 0-1zM.5.5V1h1.967V0H.5zm5.902 0V1h3.935V0H6.402zm7.87 0V1h3.934V0h-3.934zm7.87 0V1h3.934V0h-3.935zm7.869 0V1h3.935V0H30.01zm7.87 0V1h3.934V0H37.88zm7.869 0V1h3.935V0H45.75zm7.87 0V1h3.934V0H53.62zm7.87 0V1h3.934V0h-3.935zm7.869 0V1h3.935V0h-3.935zm7.87 0V1h3.934V0h-3.935zm7.869 0V1h3.935V0h-3.935zm7.87 0V1h3.934V0h-3.935zm7.869 0V1h3.935V0h-3.935zm7.87 0V1h3.934V0h-3.934zm7.869 0V1h3.935V0h-3.935zm7.87 0V1h3.934V0h-3.934zm7.869 0V1h3.935V0h-3.935zm7.87 0V1h3.935V0h-3.935zm7.869 0V1h3.935V0h-3.935zm7.87 0V1h3.935V0h-3.935zm7.87 0V1h3.934V0h-3.934zm7.869 0V1h3.935V0h-3.935zm7.87 0V1h1.967V0h-1.967z" fill="#E9F4FF"/></svg>