<svg xmlns="http://www.w3.org/2000/svg" width="441" height="2" viewBox="0 0 441 2" fill="none"><path d="M440 1.5a.5.5 0 0 0 0-1zM0 1v.5h2v-1H0zm6 0v.5h4v-1H6zm8 0v.5h4v-1h-4zm8 0v.5h4v-1h-4zm8 0v.5h4v-1h-4zm8 0v.5h4v-1h-4zm8 0v.5h4v-1h-4zm8 0v.5h4v-1h-4zm8 0v.5h4v-1h-4zm8 0v.5h4v-1h-4zm8 0v.5h4v-1h-4zm8 0v.5h4v-1h-4zm8 0v.5h4v-1h-4zm8 0v.5h4v-1h-4zm8 0v.5h4v-1h-4zm8 0v.5h4v-1h-4zm8 0v.5h4v-1h-4zm8 0v.5h4v-1h-4zm8 0v.5h4v-1h-4zm8 0v.5h4v-1h-4zm8 0v.5h4v-1h-4zm8 0v.5h4v-1h-4zm8 0v.5h4v-1h-4zm8 0v.5h4v-1h-4zm8 0v.5h4v-1h-4zm8 0v.5h4v-1h-4zm8 0v.5h4v-1h-4zm8 0v.5h4v-1h-4zm8 0v.5h4v-1h-4zm8 0v.5h4v-1h-4zm8 0v.5h4v-1h-4zm8 0v.5h4v-1h-4zm8 0v.5h4v-1h-4zm8 0v.5h4v-1h-4zm8 0v.5h4v-1h-4zm8 0v.5h4v-1h-4zm8 0v.5h4v-1h-4zm8 0v.5h4v-1h-4zm8 0v.5h4v-1h-4zm8 0v.5h4v-1h-4zm8 0v.5h4v-1h-4zm8 0v.5h4v-1h-4zm8 0v.5h4v-1h-4zm8 0v.5h4v-1h-4zm8 0v.5h4v-1h-4zm8 0v.5h4v-1h-4zm8 0v.5h4v-1h-4zm8 0v.5h4v-1h-4zm8 0v.5h4v-1h-4zm8 0v.5h4v-1h-4zm8 0v.5h4v-1h-4zm8 0v.5h4v-1h-4zm8 0v.5h4v-1h-4zm8 0v.5h4v-1h-4zm8 0v.5h4v-1h-4zm8 0v.5h2v-1h-2z" fill="#E9F4FF"/></svg>