<svg xmlns="http://www.w3.org/2000/svg" width="674" height="2" viewBox="0 0 674 2" fill="none"><path d="M673 1.5a.5.5 0 0 0 0-1zM0 1v.5h2.003v-1H0zm6.009 0v.5h4.006v-1H6.009zm8.012 0v.5h4.006v-1H14.02zm8.012 0v.5h4.006v-1h-4.006zm8.012 0v.5h4.006v-1h-4.006zm8.011 0v.5h4.007v-1h-4.007zm8.013 0v.5h4.005v-1H46.07zm8.011 0v.5h4.006v-1H54.08zm8.012 0v.5h4.006v-1h-4.006zm8.012 0v.5h4.006v-1h-4.006zm8.012 0v.5h4.006v-1h-4.006zm8.012 0v.5h4.006v-1h-4.006zm8.012 0v.5h4.006v-1H94.14zm8.012 0v.5h4.006v-1h-4.006zm8.012 0v.5h4.006v-1h-4.006zm8.012 0v.5h4.006v-1h-4.006zm8.011 0v.5h4.006v-1h-4.006zm8.012 0v.5h4.006v-1h-4.006zm8.012 0v.5h4.006v-1h-4.006zm8.012 0v.5h4.006v-1h-4.006zm8.012 0v.5h4.006v-1h-4.006zm8.012 0v.5h4.006v-1h-4.006zm8.012 0v.5h4.006v-1h-4.006zm8.012 0v.5h4.006v-1h-4.006zm8.012 0v.5h4.006v-1h-4.006zm8.012 0v.5h4.006v-1h-4.006zm8.011 0v.5h4.006v-1h-4.006zm8.012 0v.5h4.006v-1h-4.006zm8.012 0v.5h4.006v-1h-4.006zm8.012 0v.5h4.006v-1h-4.006zm8.012 0v.5h4.006v-1h-4.006zm8.012 0v.5h4.006v-1h-4.006zm8.012 0v.5h4.006v-1h-4.006zm8.012 0v.5h4.006v-1h-4.006zm8.012 0v.5h4.006v-1h-4.006zm8.012 0v.5h4.006v-1h-4.006zm8.012 0v.5h4.005v-1h-4.005zm8.011 0v.5h4.006v-1h-4.006zm8.012 0v.5h4.006v-1h-4.006zm8.012 0v.5h4.006v-1h-4.006zm8.012 0v.5h4.006v-1h-4.006zm8.012 0v.5h4.006v-1h-4.006zm8.012 0v.5h4.006v-1h-4.006zm8.012 0v.5h4.006v-1h-4.006zm8.012 0v.5h4.006v-1h-4.006zm8.012 0v.5h4.006v-1h-4.006zm8.012 0v.5h4.005v-1h-4.005zm8.011 0v.5h4.006v-1h-4.006zm8.012 0v.5h4.006v-1h-4.006zm8.012 0v.5h4.006v-1h-4.006zm8.012 0v.5h4.006v-1h-4.006zm8.012 0v.5h4.006v-1h-4.006zm8.012 0v.5h4.006v-1h-4.006zm8.012 0v.5h4.006v-1h-4.006zm8.012 0v.5h4.006v-1h-4.006zm8.012 0v.5h4.006v-1h-4.006zm8.012 0v.5h4.005v-1h-4.005zm8.011 0v.5h4.006v-1h-4.006zm8.012 0v.5h4.006v-1h-4.006zm8.012 0v.5h4.006v-1h-4.006zm8.012 0v.5h4.006v-1h-4.006zm8.012 0v.5h4.006v-1h-4.006zm8.012 0v.5h4.006v-1h-4.006zm8.012 0v.5h4.006v-1h-4.006zm8.012 0v.5h4.006v-1h-4.006zm8.012 0v.5h4.006v-1h-4.006zm8.012 0v.5h4.006v-1h-4.006zm8.012 0v.5h4.006v-1h-4.006zm8.012 0v.5h4.006v-1h-4.006zm8.012 0v.5h4.006v-1h-4.006zm8.012 0v.5h4.005v-1h-4.005zm8.011 0v.5h4.006v-1h-4.006zm8.012 0v.5h4.006v-1h-4.006zm8.012 0v.5h4.006v-1h-4.006zm8.012 0v.5h4.006v-1h-4.006zm8.012 0v.5h4.006v-1h-4.006zm8.012 0v.5h4.006v-1h-4.006zm8.012 0v.5h4.006v-1h-4.006zm8.012 0v.5h4.006v-1h-4.006zm8.012 0v.5h4.006v-1h-4.006zm8.012 0v.5h4.006v-1h-4.006zm8.012 0v.5h4.006v-1h-4.006zm8.012 0v.5h4.006v-1h-4.006zm8.012 0v.5h4.006v-1h-4.006zm8.012 0v.5H673v-1h-2.002z" fill="#E9F4FF"/></svg>