<?xml version="1.0" encoding="UTF-8"?>
<svg id="Layer_1" data-name="Layer 1" xmlns="http://www.w3.org/2000/svg" viewBox="0 0 29.9 35.1">
  <defs>
    <style>
      .cls-1 {
        fill-rule: evenodd;
      }

      .cls-1, .cls-2 {
        fill: #fff;
      }
    </style>
  </defs>
  <path class="cls-2" d="M29.8,8.8L14.9,0,0,8.9v17.6l15,8.6,14.9-8.7V8.8h-.1ZM27.9,25.9l-13,7.6L1.9,25.9l13-7.6,13,7.6ZM1.3,24.7v-15.2L14.2,1.9v15.2L1.2,24.7h.1ZM28.6,9.6v15.2l-13-7.6V1.9l13,7.6h0v.1Z"/>
  <path class="cls-1" d="M13.4,29.6h-.9c-.2,0-.5,0-.7-.2-.7-.4-1.4-.8-2.1-1.2l-1.1-.2c.9.5,1.8,1,2.7,1.6.2.1.3.2.4.3.1.1.2.3.1.4v.3h.5c.3-.2.7-.4,1-.6.2-.1.2-.2,0-.3h.1v-.1ZM10.3,25.9h1.2c.2,0,.3.2.5.2s.3.2.5.3c.2.1.4.2.5.3l1.1.2c-.1,0-.4-.2-.7-.4-.3-.2-.5-.3-.7-.4s-.4-.3-.6-.4c-.2-.1-.2-.3-.1-.4v-.3h-.5c-.3.2-.7.4-1,.6-.2.1-.2.2,0,.3,0,0-.2,0-.2,0Z"/>
  <path class="cls-1" d="M9.1,26.3c-.7.4-1.3.8-2,1.2-.2.1-.2.2,0,.3h1l3.6.6c1.2.2,2.4.4,3.6.6.4-.2.7-.4,1.1-.6l-1.7-1c-1.8-.3-3.6-.6-5.4-.9h0s-.2-.2-.2-.2ZM14.1,26.5c.4.2.9.4,1.3.4s1,0,1.4-.3h-.2s-.2,0-.3-.1c0,0-.2,0-.3-.1l-1.7-1c-.1,0-.2-.1-.2-.1v-.2h-.2c-.4.1-.6.4-.5.7s.3.6.7.8h0M14.9,25c.6.3,1.1.7,1.7,1,.1,0,.2.1.2.1v.2s.2,0,.2.1c.4-.2.6-.5.5-.8,0-.3-.3-.5-.7-.8-.4-.2-.9-.4-1.3-.4s-1,0-1.4.3c0,0,.2,0,.2.1.1,0,.3,0,.5.1h0l.1.1ZM18.9,26.3s-.1,0-.2-.1h-.6c-.6.4-1.2.7-1.8,1.1,0,0-.1,0-.1.2,0,0,0,.1.1.2,0,0,.1,0,.2.1h.6c.6-.4,1.2-.7,1.8-1.1,0,0,.1,0,.1-.2,0,0,0-.1-.1-.2h0ZM22.8,24.1h-1.1l-2.2-1.3c-.7-.4-1.5-.9-2.2-1.3-.5.3-.9.6-1.4.9-.2.2-.3.3-.1.4h.9l1.8,1c.6.3,1.2.7,1.8,1,.1,0,.2.2.1.2l-.2.2v.2h.7c.6-.3,1.2-.7,1.7-1,.2-.1.3-.3.1-.4h.1v.1ZM4,10.7c0,.2.1.3.3.3s.3.2.3.5v7.3c0,.3-.1.6-.3.9s-.3.5-.3.7c0,.3.2.3.5.1,1.1-.6,2.1-1.2,3.2-1.9v-10.6c-1.1.6-2.1,1.3-3.2,1.9-.3.2-.5.4-.5.7h0v.1ZM8.3,11.7s-.2.1-.3.2v.9c.5-.3.8,0,.8.9v2.1c0,.9-.3,1.5-.8,1.8v.9c1.1-.7,2-1.4,2.6-2.1.7-.9,1.1-2.1,1.1-3.3,0-2.2-1.2-2.6-3.5-1.2h0v-.2h.1ZM9.8,8.2s.2.3.4.9c.1.4.3.6.5.4.2-.1.3-.3.4-.6v-2.9c-1,.6-2.1,1.2-3.1,1.8v.9c.9-.5,1.5-.7,1.8-.5h0ZM18.3,6.3c0,.2.1.4.3.7.2.3.3.6.3.9v7.3c0,.3-.1.5-.3.5s-.3.1-.3.3c0,.3.2.5.5.7,1.1.6,2.1,1.2,3.2,1.9v-10.6c-1.1-.6-2.1-1.2-3.2-1.9-.3-.2-.5-.2-.5,0h0v.2ZM22.7,12.5s-.2-.1-.3-.2v.9c.5.3.8.9.8,1.8v2.1c0,.9-.3,1.1-.8.8v.9c1.1.7,2,1,2.6.9.8,0,1.1-.7,1.1-2,0-2.2-1.2-3.9-3.5-5.3h0l.1.1ZM24.2,10.7s.2.5.4,1.3c.1.6.3.9.5,1.1.2.1.3,0,.4-.1v-2.8c-1-.6-2.1-1.2-3.1-1.8v.9c.9.5,1.5,1.1,1.8,1.6"/>
</svg>