<?xml version="1.0" encoding="UTF-8"?>
<svg id="Layer_1" xmlns="http://www.w3.org/2000/svg" xmlns:xlink="http://www.w3.org/1999/xlink" version="1.1" viewBox="0 0 183 35">
  <!-- Generator: Adobe Illustrator 29.5.1, SVG Export Plug-In . SVG Version: 2.1.0 Build 141)  -->
  <defs>
    <style>
      .st0 {
        fill: none;
      }

      .st1 {
        fill-rule: evenodd;
      }

      .st1, .st2 {
        fill: #fff;
      }

      .st3 {
        clip-path: url(#clippath);
      }
    </style>
    <clipPath id="clippath">
      <rect class="st0" x="-.5" y="-.5" width="184" height="36"/>
    </clipPath>
  </defs>
  <g class="st3">
    <g>
      <path class="st2" d="M125.3,30.5h-6.9v2h6.9v-2ZM65.2,17.2c-.2-.4-.5-.8-.7-1.2-1.3-1.8-2.8-3.1-4.7-3.8-1.8-.7-4.1-1-6.9-1h-10v-4.4h8V.4h-15.5v33.3h17.5c3.1,0,5.4-.3,7.1-1s3.1-1.9,4.4-3.7c.7-.9,1.2-2,1.5-3.1v7h3.6v-4.8h1.3c.2,1.4.7,2.6,1.7,3.6,1,1,2.4,1.4,4.4,1.4s3.3-.5,4.4-1.6c.6-.6,1.1-1.5,1.3-2.4v3.8h3.6v-4.4h2c1.5,0,2.5-.3,3.2-1,.2-.2.4-.5.6-.8v.2c0,1.4.3,2.5.8,3.5.5.9,1.2,1.6,2.1,2s1.9.6,3.3.6,2.4-.2,3.2-.7c.9-.5,1.5-1.2,2-2.1s.7-2,.7-3.4-.5-3.4-1.6-4.4c-1-1.1-2.5-1.6-4.5-1.6s-3.4.5-4.4,1.6c-.5.5-.9,1.1-1.1,1.8,0-.9-.4-1.7-1-2.2-.7-.6-1.6-.9-2.9-.9h-6v3.8c-.2-.9-.7-1.7-1.3-2.4-1-1.1-2.5-1.6-4.5-1.6s-2.9.4-3.9,1.1-1.7,1.8-2,3.2h-1.4v-4.2h-11.1c0,.4.2.9.2,1.5,0,1.2-.4,2.2-1,3-.7.8-1.5,1.3-2.5,1.6-.9.2-2.6.3-4.9.3h-7.3v-10h7.6c2.9,0,5,.4,6.2,1.2,0,0,.2.1.3.2h8.4M78.6,29.5c-.4.5-1,.8-1.8.8-1.6,0-2.4-1.1-2.4-3.3s.8-3.4,2.4-3.4,2.5,1.1,2.5,3.2-.2,2.2-.6,2.7h0ZM88.6,25.7c-.3.2-.8.4-1.5.4h-.9v-2.6h1c.7,0,1.1.1,1.4.4.2.3.4.6.4.9s0,.7-.4.9h0ZM99.8,29.5c-.4.5-1,.8-1.8.8s-1.3-.3-1.8-.8c-.4-.5-.7-1.4-.7-2.6s.2-2.1.7-2.6c.4-.5,1-.8,1.7-.8s1.4.3,1.8.8.7,1.3.7,2.4-.2,2.2-.6,2.8h0Z"/>
      <path class="st2" d="M127.9,22.6c-.6.5-1.5.9-2.6,1.3v.8c-.2-.4-.4-.8-.7-1.1-.7-.7-1.6-1-2.9-1s-2.2.3-2.8,1c-.3.3-.6.7-.8,1.2v-3.9h-3.4v6.6l-4.4-6.6h-3.4v11.9h3.4v-6.5l4.4,6.5h3.4v-5.2c.2.4.4.8.8,1.2.7.7,1.6,1,2.8,1s2.2-.4,2.9-1.1c.6-.6.9-1.4,1-2.2.6-.2,1.1-.4,1.6-.6.5-.3,1.1-.6,1.5-1v7.9h3.3v-12.1h-2.7c-.3.7-.8,1.4-1.4,1.9h0ZM122.5,27.5c-.2.3-.5.4-.8.4-.7,0-1.1-.6-1.1-1.7s0-1,.3-1.3c.2-.3.5-.4.9-.4s.6.1.8.4c.2.3.3.7.3,1.3s0,1-.3,1.3h-.1ZM29.3,8.3L14.4-.5-.5,8.4v17.6l15,8.6,14.9-8.7V8.3h-.1ZM27.4,25.4l-13,7.6L1.4,25.4l13-7.6,13,7.6ZM.8,24.2v-15.2L13.7,1.4v15.2L.7,24.2h0ZM28.1,9.1v15.2l-13-7.6V1.4l13,7.6h0Z"/>
      <path class="st1" d="M12.9,29.1h-.9c-.2,0-.5,0-.7-.2-.7-.4-1.4-.8-2.1-1.2l-1.1-.2c.9.5,1.8,1,2.7,1.6.2.1.3.2.4.3.1.1.2.3.1.4v.3h.5c.3-.2.7-.4,1-.6.2-.1.2-.2,0-.3h.1ZM9.8,25.4h1.2c.2,0,.3.2.5.2s.3.2.5.3c.2.1.4.2.5.3l1.1.2c-.1,0-.4-.2-.7-.4-.3-.2-.5-.3-.7-.4s-.4-.3-.6-.4c-.2-.1-.2-.3-.1-.4v-.3h-.5c-.3.2-.7.4-1,.6-.2.1-.2.2,0,.3h-.2Z"/>
      <path class="st1" d="M8.6,25.8c-.7.4-1.3.8-2,1.2-.2.1-.2.2,0,.3h1l3.6.6c1.2.2,2.4.4,3.6.6.4-.2.7-.4,1.1-.6l-1.7-1c-1.8-.3-3.6-.6-5.4-.9h0l-.2-.2ZM13.6,26c.4.2.9.4,1.3.4s1,0,1.4-.3h-.2s-.2,0-.3-.1c0,0-.2,0-.3-.1l-1.7-1c-.1,0-.2-.1-.2-.1v-.2h-.2c-.4.1-.6.4-.5.7s.3.6.7.8h0M14.4,24.5c.6.3,1.1.7,1.7,1,.1,0,.2.1.2.1v.2s.2,0,.2.1c.4-.2.6-.5.5-.8,0-.3-.3-.5-.7-.8-.4-.2-.9-.4-1.3-.4s-1,0-1.4.3c0,0,.2,0,.2.1.1,0,.3,0,.5.1h0ZM18.4,25.8s-.1,0-.2-.1h-.6c-.6.4-1.2.7-1.8,1.1,0,0-.1,0-.1.2,0,0,0,.1.1.2,0,0,.1,0,.2.1h.6c.6-.4,1.2-.7,1.8-1.1,0,0,.1,0,.1-.2,0,0,0-.1-.1-.2h0ZM22.3,23.6h-1.1l-2.2-1.3c-.7-.4-1.5-.9-2.2-1.3-.5.3-.9.6-1.4.9-.2.2-.3.3-.1.4h.9l1.8,1c.6.3,1.2.7,1.8,1,.1,0,.2.2.1.2l-.2.2v.2h.7c.6-.3,1.2-.7,1.7-1,.2-.1.3-.3.1-.4h.1ZM3.5,10.2c0,.2.1.3.3.3s.3.2.3.5v7.3c0,.3-.1.6-.3.9s-.3.5-.3.7c0,.3.2.3.5.1,1.1-.6,2.1-1.2,3.2-1.9V7.5c-1.1.6-2.1,1.3-3.2,1.9-.3.2-.5.4-.5.7h0ZM7.8,11.2s-.2.1-.3.2v.9c.5-.3.8,0,.8.9v2.1c0,.9-.3,1.5-.8,1.8v.9c1.1-.7,2-1.4,2.6-2.1.7-.9,1.1-2.1,1.1-3.3,0-2.2-1.2-2.6-3.5-1.2h0v-.2ZM9.3,7.7s.2.3.4.9c.1.4.3.6.5.4.2-.1.3-.3.4-.6v-2.9c-1,.6-2.1,1.2-3.1,1.8v.9c.9-.5,1.5-.7,1.8-.5h0ZM17.8,5.8c0,.2.1.4.3.7.2.3.3.6.3.9v7.3c0,.3-.1.5-.3.5s-.3.1-.3.3c0,.3.2.5.5.7,1.1.6,2.1,1.2,3.2,1.9V7.5c-1.1-.6-2.1-1.2-3.2-1.9-.3-.2-.5-.2-.5,0h0ZM22.2,12s-.2-.1-.3-.2v.9c.5.3.8.9.8,1.8v2.1c0,.9-.3,1.1-.8.8v.9c1.1.7,2,1,2.6.9.8,0,1.1-.7,1.1-2,0-2.2-1.2-3.9-3.5-5.3h0ZM23.7,10.2s.2.5.4,1.3c.1.6.3.9.5,1.1.2.1.3,0,.4-.1v-2.8c-1-.6-2.1-1.2-3.1-1.8v.9c.9.5,1.5,1.1,1.8,1.6"/>
      <path class="st2" d="M177.3,16v-2.3h5.6v-2.4h-5.6v-1.9h6v-2.5h-9.6v3.7c-.3-.9-.7-1.7-1.3-2.3-1-1.1-2.5-1.6-4.5-1.6s-3.4.5-4.4,1.6c-.2.2-.4.5-.6.7h0v-2.2c-1.3,0-2.3,0-2.9.2-.6,0-1.1.4-1.3.7-.3.3-.5.8-.8,1.6-.4,1-.6,1.6-.8,1.8s-.4.3-.7.3v-4.5h-3.6v2.6h0c-.4-.8-.9-1.5-1.5-1.9-.8-.6-2-.9-3.4-.9s-3.3.5-4.3,1.6c-.4.4-.6.8-.9,1.3h0c-.1-.7-.4-1.3-.9-1.7-.6-.6-1.6-.9-2.9-.9h-35.1v7.8c0,.6,0,1-.3,1.2,0,0-.2.1-.3.2h0l-3.4-9.2h-3.9l-4.4,11.8h3.7l.6-1.9h4.1l.6,1.9h3.6c.9,0,1.6-.2,2.1-.5.6-.3.9-.8,1.1-1.5s.2-1.8.2-3.3v-3.6h2.8v8.9h3.6v-8.9h3v8.9h3.6v-8.9h3.1v8.9h13.1v-4.4h2c1.4,0,2.5-.3,3.2-1,.1-.1.2-.2.3-.4,0,1.4.3,2.5.9,3.4.6.9,1.3,1.6,2.1,2s1.8.6,3.1.6,1.9-.2,2.6-.5c.7-.3,1.3-.8,1.7-1.4.2-.3.4-.6.5-.9h0v2.5h3.6v-4.7c.3,0,.6,0,.8.3.2.2.4.6.8,1.4l1.4,3.1h4l-1.6-3.2c-.4-.9-.8-1.5-1.2-2-.4-.4-.8-.7-1.4-.9.4-.2.7-.4.9-.6.2-.3.4-.7.6-1.2.2-.5.4-.9.7-1.1.3-.2.8-.4,1.4-.4h0c-.6.9-.8,2.1-.8,3.5s.3,2.5.8,3.4c.5.9,1.2,1.6,2.1,2,.9.4,1.9.6,3.3.6s2.4-.2,3.2-.7,1.5-1.2,2-2.1c.2-.3.3-.7.4-1.1v3.7h9.8v-2.7h-6.6ZM96.4,14.2l1.3-4.2,1.3,4.2h-2.6ZM132.9,9.4h-.1v6.6h-5.9v-2.3h5.6v-2.4h-5.6v-1.9h6ZM138.8,11.5c-.3.2-.8.4-1.5.4h-.9v-2.6h1c.7,0,1.1.1,1.4.4.2.3.4.6.4.9s-.1.7-.4.9h0ZM152.8,14.7l-2.7-.8c-.2.7-.4,1.3-.8,1.7-.4.4-.9.6-1.6.6s-1.3-.2-1.6-.7c-.4-.5-.6-1.4-.6-2.7s.2-1.8.5-2.3c.4-.7,1.1-1,1.9-1s.7,0,1,.2c.3.1.5.4.7.6.1.2.2.4.3.8l2.8-.6h0v4.3h.1ZM169.8,15.4c-.4.5-1,.8-1.8.8s-1.3-.3-1.8-.8c-.4-.5-.7-1.4-.7-2.6s.2-2.1.7-2.6c.4-.5,1-.8,1.7-.8s1.4.3,1.8.8c.4.5.7,1.3.7,2.4s-.2,2.2-.6,2.7h0ZM93.2,6.9h-12.4l-2,3.6-2.1-3.6h-5.8l-1.6,4.9-1.6-4.9h-3.9l3.9,8.5c0,.5-2.4.5-3.6.5l1.2,2.9h1.7c.8,0,1.4-.1,1.9-.4.5-.2.8-.5,1-.9s.5-.9.8-1.7l3.1-7.4h0l2.6,4-4,6.2h4l2.3-3.8,2.3,3.8h6.6v-8.9h5.6v-2.9h0ZM84,8v9.1l-2.9-4.5,2.9-4.6h0Z"/>
    </g>
  </g>
  <path class="st0" d="M0,0h183v35H0V0Z" shape-rendering="crispEdges"/>
</svg>