<svg xmlns="http://www.w3.org/2000/svg" width="192" height="44" viewBox="0 0 192 44" fill="none"><g filter="url(#a)"><g clip-path="url(#b)" fill="#fff"><path d="M129.782 30.999h-6.903v1.959h6.903zM69.717 17.666q-.323-.635-.735-1.228c-1.29-1.846-2.843-3.12-4.664-3.802q-2.722-1.024-6.866-1.023h-9.999V7.18h7.996V.863h-15.47v33.344h17.473q4.6 0 7.085-.998c1.66-.666 3.14-1.912 4.427-3.723a10 10 0 0 0 1.497-3.124v6.957h3.593v-4.785h1.287q.25 2.131 1.692 3.56 1.453 1.427 4.396 1.426c1.964 0 3.322-.537 4.36-1.605.623-.64 1.052-1.45 1.302-2.423v3.827h3.618V28.92h1.97q2.175.001 3.238-1.01.347-.335.583-.75-.004.116-.003.238.001 2.075.803 3.463c.537.923 1.234 1.591 2.099 2.021q1.293.64 3.263.638c1.312 0 2.371-.248 3.241-.741a4.97 4.97 0 0 0 1.985-2.069q.687-1.329.689-3.406c0-1.906-.528-3.39-1.575-4.449q-1.573-1.587-4.485-1.588c-1.942 0-3.368.54-4.427 1.616a5.15 5.15 0 0 0-1.13 1.765q-.117-1.418-.957-2.232-.976-.95-2.93-.949h-5.982v3.758c-.25-.948-.695-1.739-1.325-2.376q-1.568-1.584-4.485-1.586c-1.58 0-2.868.377-3.865 1.118-.994.744-1.655 1.82-1.963 3.243h-1.399v-4.157H62.962c.118.443.173.936.173 1.467 0 1.202-.355 2.207-1.05 3.035-.7.817-1.515 1.338-2.463 1.58-.938.229-2.568.339-4.896.339H47.45v-9.956h7.603c2.946 0 5.032.393 6.249 1.193.095.06.191.13.274.195h8.406m13.145 10.662c-.41.527-1.022.79-1.824.79-1.618 0-2.433-1.114-2.433-3.346s.806-3.412 2.411-3.412 2.463 1.08 2.463 3.243q0 1.938-.62 2.725zm9.925-3.83q-.422.369-1.46.367h-.883v-2.647h1.025q1.011 0 1.374.39.366.384.367.944c0 .374-.142.698-.42.942zm11.286 3.861c-.423.512-1.025.766-1.793.766-.769 0-1.349-.26-1.785-.785q-.653-.782-.654-2.58c0-1.2.219-2.073.657-2.59.442-.522 1.022-.785 1.748-.785.725 0 1.358.257 1.802.769q.666.771.664 2.449c0 1.324-.216 2.241-.636 2.756z"/><path d="M132.359 23.141q-.916.759-2.568 1.3v.772a3.5 3.5 0 0 0-.723-1.07c-.663-.685-1.63-1.027-2.892-1.027s-2.161.348-2.84 1.04a3.4 3.4 0 0 0-.772 1.189v-3.877h-3.39v6.558l-4.396-6.558h-3.364v11.851h3.386v-6.508l4.359 6.508h3.405v-5.233q.254.644.762 1.174c.673.697 1.618 1.045 2.847 1.045s2.241-.351 2.905-1.051a3.55 3.55 0 0 0 .972-2.195 11 11 0 0 0 1.602-.643 10 10 0 0 0 1.538-.996v7.9h3.272V21.263h-2.68a5.4 5.4 0 0 1-1.429 1.88h.006zm-5.313 4.847c-.182.27-.466.4-.845.4-.744 0-1.112-.554-1.112-1.659q.001-.913.275-1.3c.182-.257.475-.389.87-.389.396 0 .649.13.828.39.176.257.265.684.265 1.268s-.089 1.03-.274 1.293h-.004zM33.809 8.81 18.9 0 3.985 8.869l.046 17.58 14.907 8.637 14.908-8.737-.034-17.543zm-1.927 17.128-12.987 7.629-12.953-7.629 12.953-7.629zM5.256 24.72V9.556l12.97-7.644v15.163zM32.571 9.56v15.163L19.599 17.08V1.915z"/><path fill-rule="evenodd" clip-rule="evenodd" d="M17.423 29.59c-.08-.05-.201-.057-.368-.032-.231.041-.401.05-.503.044a1.55 1.55 0 0 1-.698-.226 742 742 0 0 1-2.102-1.237l-1.127-.182q1.329.782 2.658 1.56.273.162.408.277c.148.122.179.26.101.423q-.122.241.016.324c.157.094.343.078.546-.044.33-.198.664-.39 1-.587q.309-.186.072-.317h-.003zm-3.1-3.699q.12.073.537.006.418-.064.72.073.227.102.493.25.176.1.466.277c.226.132.377.223.454.264l1.136.179q-.2-.12-.71-.402-.464-.255-.719-.405a6 6 0 0 1-.627-.436q-.248-.206-.136-.443.111-.236-.003-.305-.235-.14-.537.035-.506.301-1.012.593c-.198.113-.216.22-.056.311z"/><path fill-rule="evenodd" clip-rule="evenodd" d="M13.116 26.324q-.982.576-1.96 1.153-.271.158-.077.276c.09.05.228.053.422.003q.36-.091.58-.053l3.56.562c1.186.185 2.377.376 3.563.562.355-.21.71-.418 1.07-.632l-1.731-1.02q-2.714-.424-5.424-.854zm4.949.161q.631.371 1.345.417.777.047 1.396-.31l-.244-.145a.35.35 0 0 1-.303.031 1.6 1.6 0 0 1-.259-.135l-1.689-.992q-.18-.108-.21-.15c-.055-.067-.043-.123.05-.173l-.235-.138c-.41.244-.596.508-.543.794s.284.556.7.8h-.009m.794-1.456q.845.498 1.689.992.18.107.222.15.087.1-.043.176c.08.05.166.098.247.145.41-.245.583-.512.524-.813q-.083-.42-.71-.791a3 3 0 0 0-1.336-.415 2.35 2.35 0 0 0-1.37.317c.076.047.157.094.234.138q.185-.109.546.1zm4.038 1.319c-.056-.031-.111-.069-.173-.1a.5.5 0 0 0-.26-.066.47.47 0 0 0-.256.066q-.916.54-1.83 1.076-.11.066-.108.151-.002.087.108.154c.055.031.117.069.173.1a.5.5 0 0 0 .256.066.5.5 0 0 0 .26-.066c.607-.358 1.222-.715 1.83-1.076q.11-.066.108-.154.002-.087-.108-.154zm3.871-2.267c-.111-.066-.265-.06-.46.006a.62.62 0 0 1-.556-.047l-2.213-1.3q-1.107-.649-2.213-1.303c-.47.311-.933.628-1.399.936q-.36.236-.123.377.148.085.395.006c.166-.053.336-.025.525.085l1.765 1.039c.587.348 1.18.69 1.766 1.04.142.08.2.172.145.247-.058.075-.133.135-.197.201-.068.066-.047.129.052.188q.251.149.655-.09.868-.51 1.738-1.024c.247-.144.28-.264.117-.361zM8.001 10.668c0 .197.117.291.343.298q.337.007.336.505v7.321q0 .484-.336.892c-.226.27-.343.505-.343.697 0 .298.173.339.519.135 1.058-.622 2.117-1.25 3.18-1.871V8.059q-1.589.94-3.18 1.874c-.346.204-.519.443-.519.731zm4.347 1.061q-.133.08-.266.154v.895q.806-.473.806.863v2.072q0 1.309-.806 1.783v.914q1.71-1.008 2.602-2.15a5.24 5.24 0 0 0 1.13-3.313q0-3.263-3.47-1.218zm1.484-3.504q.075.062.361.873.223.618.544.43c.2-.119.33-.31.392-.584.03-.147.052-.38.052-.69V6.006q-1.546.915-3.093 1.82v.895q1.383-.813 1.75-.502h-.003zm8.514-1.965q-.001.295.337.697c.228.274.336.572.336.905v7.32q.002.486-.336.49c-.226.004-.343.104-.343.299 0 .298.173.543.519.747 1.059.622 2.117 1.25 3.18 1.874V8.012a650 650 0 0 0-3.18-1.87c-.346-.205-.513-.164-.513.122zm4.347 6.195a9 9 0 0 0-.266-.154v.894c.534.314.806.92.806 1.812v2.072c0 .873-.272 1.15-.806.835v.91q1.71 1.008 2.603.917 1.132-.112 1.13-1.98 0-3.262-3.467-5.31zm1.487-1.759q.075.148.362 1.303.223.882.543 1.067.301.18.386-.122.048-.16.05-.634v-2.248q-1.546-.915-3.09-1.82v.897c.922.54 1.503 1.064 1.75 1.557"/><path d="M181.798 16.494v-2.326h5.584V11.76h-5.584V9.88h6.023V7.359h-9.616v3.72c-.253-.92-.664-1.714-1.285-2.34-1.046-1.057-2.531-1.584-4.467-1.584s-3.355.533-4.411 1.61c-.222.226-.407.48-.583.744v.01h-.003s0-.007.003-.01V7.264c-1.315 0-2.288.07-2.908.21-.624.139-1.065.368-1.34.691-.275.314-.547.845-.818 1.58-.371.995-.642 1.591-.818 1.802q-.261.32-.726.335v-4.53h-3.584v2.58l.01.026h-.01v-.025q-.574-1.21-1.512-1.88c-.843-.603-1.985-.902-3.449-.902-1.864 0-3.315.528-4.334 1.576-.367.374-.642.823-.877 1.31v.006h-.003v-.006c-.132-.713-.423-1.3-.879-1.743-.649-.634-1.618-.945-2.918-.945h-35.112v7.817q.002.867-.302 1.197c-.074.078-.192.128-.303.182l.006.015-.027-.006s.018-.003.024-.006l-3.399-9.193h-3.911l-4.362 11.808h3.668l.558-1.947h4.091l.571 1.947h1.327s.618.016 1.195.028c.117.006.247.025.352.025.13 0 .241-.01.361-.015h.232c.03 0 .074-.007.108-.01.91-.053 1.608-.207 2.074-.468q.857-.49 1.09-1.541.231-1.05.231-3.29v-3.633h2.81v8.91h3.587v-8.89h3.013v8.89h3.59v-8.89h2.883l.185.015v8.878h13.108V14.79h1.96q2.173 0 3.229-1.011c.121-.113.219-.248.318-.377.022 1.388.303 2.543.862 3.447.583.939 1.274 1.598 2.074 1.968q1.2.56 3.09.56c1.04 0 1.899-.154 2.569-.462a4.3 4.3 0 0 0 1.691-1.356 5.2 5.2 0 0 0 .528-.91h.003v2.52h3.584v-4.671q.492 0 .769.27c.185.179.445.634.778 1.35l1.395 3.054h4.041l-1.58-3.233c-.433-.889-.843-1.548-1.226-1.966a3.2 3.2 0 0 0-1.352-.891q.566-.23.895-.622.329-.39.611-1.19c.195-.527.436-.91.732-1.146.293-.235.753-.354 1.365-.354h.015s.003-.007.006-.01v.01h-.006c-.553.948-.837 2.113-.837 3.5s.269 2.527.803 3.447 1.229 1.589 2.087 2.016q1.293.637 3.254.637c1.305 0 2.364-.245 3.232-.738a4.93 4.93 0 0 0 1.979-2.06c.169-.329.299-.705.404-1.101v3.701h9.789v-2.675h-6.202zm-80.89-1.833 1.278-4.245 1.284 4.245zm36.538-4.781h-.111v6.614h-5.902v-2.326h5.581V11.76h-5.581V9.88h6.017zm5.826 2.147c-.281.245-.763.367-1.457.367h-.88V9.76h1.022q1.009 0 1.37.386.367.387.368.942c0 .37-.136.694-.42.939zm13.993 3.14-2.679-.823c-.161.747-.417 1.312-.763 1.708q-.531.589-1.559.59c-.685 0-1.256-.245-1.648-.732q-.587-.729-.587-2.696.002-1.587.494-2.327c.432-.665 1.059-.998 1.868-.998q.536 0 .975.226c.287.15.537.367.738.644.124.163.235.43.349.79l2.797-.633.015.009zm16.997.709c-.419.508-1.018.766-1.787.766s-1.346-.26-1.781-.782c-.432-.527-.651-1.378-.651-2.571s.219-2.066.657-2.584c.435-.527 1.019-.781 1.738-.781.759 0 1.355.257 1.8.762q.66.77.66 2.446c0 1.322-.216 2.232-.636 2.747zM97.655 7.359H85.254l-1.994 3.629-2.062-3.63h-5.85l-1.584 4.864-1.605-4.863h-3.9l3.869 8.536c-.074.505-2.359.527-3.609.477l1.204 2.932c.763.044 1.491.066 1.735.066.8 0 1.43-.113 1.886-.352.454-.232.8-.533 1.028-.891.235-.361.503-.914.821-1.651L78.3 9.044h.034l2.559 3.969-4.007 6.153h4.007l2.294-3.796 2.287 3.796h6.563v-8.91h5.615v-2.9h.004zm-9.197 1.12v9.064l-2.898-4.47 2.898-4.597z"/></g><path stroke="#000" shape-rendering="crispEdges" d="M4.5.5h183v35H4.5z"/></g><defs><clipPath id="b"><path fill="#fff" d="M4 0h184v36H4z"/></clipPath><filter id="a" x="0" y="0" width="192" height="44" filterUnits="userSpaceOnUse" color-interpolation-filters="sRGB"><feFlood flood-opacity="0" result="BackgroundImageFix"/><feColorMatrix in="SourceAlpha" values="0 0 0 0 0 0 0 0 0 0 0 0 0 0 0 0 0 0 127 0" result="hardAlpha"/><feOffset dy="4"/><feGaussianBlur stdDeviation="2"/><feComposite in2="hardAlpha" operator="out"/><feColorMatrix values="0 0 0 0 0 0 0 0 0 0 0 0 0 0 0 0 0 0 0.25 0"/><feBlend in2="BackgroundImageFix" result="effect1_dropShadow_3_1948"/><feBlend in="SourceGraphic" in2="effect1_dropShadow_3_1948" result="shape"/></filter></defs></svg>