<svg xmlns="http://www.w3.org/2000/svg" width="126" height="53" viewBox="0 0 126 53" fill="none">
<g clip-path="url(#clip0_1_4657)">
<path d="M121 37H116V38H121V37Z" fill="#0A00FA"/>
<path fill-rule="evenodd" clip-rule="evenodd" d="M82 23L81 24L80 23H79H78L77 25L76 23H75L76 26C75.9698 26.2087 75.5435 27.0199 75 27C74.8289 26.682 74.2114 26.2981 74 26C73.0036 24.6188 72.409 23.5068 71 23C69.591 22.4833 68.1337 22 66 22H58V19H64V14H52V39H65C67.3652 39 69.7218 38.4968 71 38C72.2883 37.5032 73.0036 36.3613 74 35C74.5234 34.2945 75.7484 33.8545 76 33V38H78V35H79C79.1308 36.0632 80.2552 36.2846 81 37C81.7448 37.7154 82.4903 39 84 39C85.4493 39 86.2049 37.8048 87 37C87.4831 36.5231 87.8088 35.7353 88 35V38H91V35H93C94.1172 35 94.4464 34.5068 95 34C95.1812 33.8311 95.8792 34.2087 96 34C96 33.9404 96 34.0596 96 34C96 35.0334 95.5874 36.3144 96 37C96.4126 37.6955 97.3357 37.6721 98 38C98.6643 38.318 98.9935 39 100 39C100.996 39 102.326 38.3676 103 38C103.664 37.6324 103.648 36.6657 104 36C104.352 35.3343 105 35.0334 105 34C105 32.5692 104.815 31.7949 104 31C103.195 30.2051 101.5 29 100 29C98.5406 29 97.8152 30.1952 97 31C96.6175 31.3676 96.2013 31.4932 96 32C95.9396 31.2945 95.4328 30.4074 95 30C94.4968 29.5231 94.0065 29 93 29H88V32C87.8088 31.2846 87.4831 30.4769 87 30C86.1948 29.2051 85.4996 29 84 29C82.7822 29 81.775 29.4436 81 30C80.2351 30.5564 79.2416 31.9368 79 33H78V29H70C70.0906 29.3378 70 30.6025 70 31C70 31.9042 69.5435 32.3839 69 33C68.4565 33.6061 67.7246 33.8211 67 34C66.2754 34.1689 64.8016 34 63 34H58V27H64C66.2746 27 67.064 27.4038 68 28C68.0705 28.0497 68.9295 27.9503 69 28H75C75.3321 28.0199 75.8893 28 76 28C76.3422 28 76.8088 28.0994 77 28C77.2013 27.9006 76.8994 27.149 77 27C77.1006 26.851 77.8692 27.308 78 27L79 24L80 25L78 28H80L81 26L82 28H85V24H87V23H82ZM83 23V27L82 25L83 23ZM85 36C84.6779 36.3975 84.624 36 84 36C82.752 36 82 35.6793 82 34C82 32.2909 82.7621 31 84 31C85.2681 31 86 32.3804 86 34C86 34.9638 85.312 35.6025 85 36ZM93 33C92.7786 33.1888 92.5334 33 92 33H91V31H92C92.5234 31 92.8188 31.8112 93 32C93 31.7218 93.1912 32.1888 93 32C93 32.2882 93.2214 32.8112 93 33ZM102 36C101.678 36.3875 100.594 36 100 36C99.4163 36 99.3422 36.3875 99 36C98.6578 35.6125 98 34.9042 98 34C98 33.0958 98.6578 32.3975 99 32C99.3422 31.6125 99.4364 31 100 31C100.584 31 101.658 31.6125 102 32C102.342 32.3875 102 33.1554 102 34C102 34.9936 102.332 35.6125 102 36Z" fill="#0A00FA"/>
<path fill-rule="evenodd" clip-rule="evenodd" d="M106 28.0008V26.0008C106.624 26.0008 107.698 26.2813 108 26.0008C107.95 26.0492 108.05 25.9525 108 26.0008C108.01 26.5714 107.758 26.6333 108 27.0008C108.252 27.3877 108.648 27.8461 109 28.0008C109.342 28.1556 110.457 28.0008 111 28.0008C111.453 28.0008 111.708 28.1265 112 28.0008C112.292 27.8751 111.799 27.2523 112 27.0008C112.091 26.8944 112.93 27.1362 113 27.0008V28.0008H114V26.0008C114.141 26.0008 114.919 25.9331 115 26.0008C115.081 26.0782 114.859 26.7107 115 27.0008V28.0008H117V27.0008C116.809 26.6333 116.171 26.1652 116 26.0008C115.829 25.8267 115.221 25.0782 115 25.0008C115.161 24.9331 115.899 25.1072 116 25.0008C115.919 25.2136 116.091 24.8944 116 25.0008C116.081 24.7881 115.869 24.0975 116 24.0008C116.131 23.9041 116.728 24.0008 117 24.0008C116.758 24.3877 117 24.4302 117 25.0008C117 25.5617 116.769 26.6236 117 27.0008C117.231 27.378 117.628 27.8171 118 28.0008C118.372 28.1749 118.436 28.0008 119 28.0008C119.564 28.0008 120.628 28.2039 121 28.0008C121.372 27.7977 121.809 27.3587 122 27.0008C122.07 26.8654 121.95 26.1652 122 26.0008V28.0008H126V27.0008H123V26.0008H126V25.0008H123V24.0008H126V23.0008H122V25.0008C121.889 24.6236 121.262 24.2523 121 24.0008C120.547 23.5656 119.845 23.0008 119 23.0008C118.185 23.0008 117.453 23.5656 117 24.0008C116.899 24.0975 117.07 23.8848 117 24.0008V23.0008C116.426 23.0008 116.262 22.9428 116 23.0008C115.728 23.0588 115.121 22.8751 115 23.0008C114.879 23.1265 115.111 23.701 115 24.0008C114.839 24.407 115.07 24.9235 115 25.0008C114.93 25.0879 114.131 25.0008 114 25.0008V23.0008H113V24.0008C112.829 23.672 112.272 23.1846 112 23.0008C111.638 22.7494 111.634 23.0008 111 23.0008C110.195 23.0008 109.443 23.5656 109 24.0008C108.839 24.1556 108.101 23.7977 108 24.0008C107.94 23.7107 108.201 23.1846 108 23.0008C107.718 22.7397 107.564 23.0008 107 23.0008H105H104H101H100H99H96H95H91V26.0008C91 26.2329 91.0906 26.9041 91 27.0008C90.9698 27.0298 91.0503 26.9815 91 27.0008L90 23.0008H88L86 28.0008H88V27.0008H90V28.0008C90 28.0008 90.7484 28.0008 91 28.0008C90.9597 28.0008 91.0503 28.0008 91 28.0008C90.9396 28.0105 91.0604 28.0008 91 28.0008C90.9799 28.0008 91.0403 28.0008 91 28.0008C90.9799 28.0008 91.0101 28.0008 91 28.0008C91.3925 27.9815 91.7987 28.1072 92 28.0008C92.2516 27.8654 92.9296 27.2813 93 27.0008C93.0704 26.7107 93 26.6198 93 26.0008V24.0008H94V28.0008H96V24.0008H97V28.0008H99V24.0008H100V28.0008M88 26.0008L89 24.0008V26.0008H88ZM103 27.0008H101V26.0008H104V25.0008H101V24.0008H104V27.0008H103ZM107 25.0008C106.879 25.0975 106.302 25.0008 106 25.0008V24.0008C106.292 24.0008 106.899 23.8944 107 24.0008C107.111 24.1072 107 24.8461 107 25.0008C107.121 24.9041 107 25.1556 107 25.0008ZM111 26.0008C110.93 26.3103 111.151 26.8461 111 27.0008C110.849 27.1652 110.292 27.0008 110 27.0008C109.698 27.0008 110.171 27.2039 110 27.0008C109.829 26.7977 110 25.5327 110 25.0008C110 24.5656 109.859 24.2039 110 24.0008C110.191 23.73 110.648 24.0008 111 24.0008C110.869 23.9331 111.161 24.0008 111 24.0008C110.909 23.8944 111.121 24.0588 111 24.0008C111.05 24.0685 110.95 24.8558 111 25.0008H113V26.0008H111ZM120 27.0008C119.819 27.2136 119.332 27.0008 119 27.0008C118.678 27.0008 118.191 27.2136 118 27.0008C117.809 26.7881 118 25.4844 118 25.0008C118 24.5076 117.809 24.2136 118 24.0008C118.191 23.7881 118.688 24.0008 119 24.0008C119.332 24.0008 119.809 23.7977 120 24.0008C120.191 24.2136 120 24.5366 120 25.0008C119.99 25.5521 120.181 26.7977 120 27.0008Z" fill="#0A00FA"/>
<path fill-rule="evenodd" clip-rule="evenodd" d="M123 30C122.536 30.3758 121.83 30.733 121 31V32C120.872 31.7033 120.237 31.2374 120 31C119.496 30.4857 118.958 30 118 30C117.081 30 116.514 30.4857 116 31C115.743 31.267 115.128 31.6736 115 32V29H113V34L110 29H107V38H110V33L113 38H115V34C115.128 34.3165 115.733 34.733 116 35C116.514 35.5242 117.061 36 118 36C118.968 36 119.496 35.5242 120 35C120.435 34.5451 120.941 33.6429 121 33C121.484 32.8418 121.674 33.1681 122 33C122.375 32.8121 123.605 32.3066 124 32V38H126V29H124C123.713 29.5538 123.464 29.6143 123 30ZM119 34C118.862 34.1978 118.287 34 118 34C117.437 34 117 33.8209 117 33C117 32.5451 117.862 32.1879 118 32C117.694 32 118.138 31.8022 118 32C118.287 32 118.872 31.8121 119 32C119.128 32.1879 119 32.5549 119 33C119 33.4352 119.138 33.8022 119 34Z" fill="#0A00FA"/>
<path fill-rule="evenodd" clip-rule="evenodd" d="M46 40L23 53L0 40L23 27L46 40ZM45 40L23 52L1 40L23 27L45 40ZM43 40L23 52L3 40L23 28L43 40ZM13 43C13.6085 43.1 14.3915 42.91 15 43C16.1473 43.6601 16.8627 44.3399 18 45C18.3791 45.22 18.6209 45.98 19 46C19.1596 46.01 19.6209 46.06 20 46C20.2694 45.96 20.8603 45.92 21 46C21.2594 46.15 20.3392 45.81 20 46C19.4613 46.3201 19.5387 46.6899 19 47C18.6708 47.19 18.2594 47.15 18 47C17.8504 46.91 17.8603 47.26 18 47C18.1297 46.74 18.2494 46.2 18 46C17.8504 45.88 17.2993 46.17 17 46C15.5634 45.1698 14.4465 43.8302 13 43ZM22 41C21.3815 40.91 20.6185 41.1 20 41C19.8803 40.93 19.3691 41.22 19 41C18.6808 40.81 18.1895 40.1 18 40C17.7107 39.84 18.2494 40.11 18 40C17.6708 39.85 16.4489 39.94 16 40C15.5411 40.07 16.1297 40.08 16 40C15.7406 39.85 15.6808 39.18 16 39C16.5487 38.6799 16.4513 38.3201 17 38C17.3292 37.81 17.7406 37.85 18 38C18.1297 38.07 18.1197 38.75 18 39C17.7207 38.78 17.8803 39.26 18 39C18.2694 39.22 18.601 39.75 19 40C19.2694 40.16 20.5012 40.7299 21 41C21.5587 41.3001 21.7805 40.87 22 41ZM22 42C22.9378 42.5501 24.0622 43.4499 25 44C24.4214 44.3401 23.5786 44.6599 23 45C21.0646 44.6999 19.9354 44.3001 18 44C16.0646 43.6999 13.9354 43.3001 12 43C11.7606 42.96 11.3891 42.9 11 43C10.6808 43.08 10.1397 43.08 10 43C9.7905 42.88 9.70072 42.17 10 42C11.0674 41.3799 12.9425 41.6101 14 41C16.9629 41.4501 19.057 41.5499 22 42ZM26 41C25.8703 40.92 26.1297 41.08 26 41C25.3316 41.3901 24.838 41.06 24 41C23.2219 40.95 22.6884 41.4001 22 41C21.3216 40.6099 20.0898 39.4701 20 39C19.9202 38.5399 20.3216 38.3901 21 38C21.1297 38.08 21.8703 37.93 22 38C21.8504 38.08 21.9102 38.9 22 39C21.8005 38.89 22.0399 39.05 22 39C22.9178 39.5301 24.0822 40.4699 25 41C24.9302 40.97 25.1995 41.12 25 41C25.1796 41.07 25.8504 41.09 26 41ZM26 41C25.8703 40.92 26.1297 41.08 26 41C26.1397 40.92 26.0998 40.1 26 40C25.9501 39.95 26.1895 40.11 26 40C25.0822 39.4699 23.9178 38.5301 23 38C22.6109 37.78 22.1995 37.88 22 38C21.8703 37.93 22.1297 38.07 22 38C22.6684 37.6099 23.182 37.95 24 38C24.7781 38.05 25.3116 37.6099 26 38C26.6884 38.4001 26.9102 38.5499 27 39C27.0998 39.4801 26.6684 40.6099 26 41ZM26 43C25.9102 42.95 25.0898 43.05 25 43C24.8803 42.93 25 42.09 25 42C24.8803 42.06 25 41.91 25 42C25.9876 41.4199 27.0024 40.5801 28 40C28.1197 39.93 28.8404 40 29 40C28.8903 39.93 29.1596 40 29 40C29.0998 40.05 28.9102 40.95 29 41C29.1197 41.07 29.99 40.91 30 41C30 41.1 29.1197 40.93 29 41C28.0024 41.5801 27.9976 42.4199 27 43C26.8803 43.07 26.1596 43 26 43C26.1197 43.06 25.8404 42.99 26 43ZM27 33C28.2071 33.7001 29.7929 34.2999 31 35C32.1971 35.7001 32.7929 36.2999 34 37C34.2793 37.16 34.6808 37.12 35 37C35.3192 36.89 35.8204 36.89 36 37C36.2694 37.16 36.399 36.77 36 37C35.0523 37.5501 33.9378 38.4599 33 39C32.5611 39.25 32.2694 39.16 32 39C31.8404 38.9 31.8903 39.1 32 39C31.9102 39.12 32.1097 38.89 32 39C32.0898 38.88 32.2195 38.14 32 38C31.0423 37.4499 29.9577 37.5601 29 37C28.0423 36.4399 26.9677 35.5601 26 35C25.6907 34.82 25.2694 34.92 25 35C24.7306 35.09 24.1696 35.09 24 35C23.7406 34.85 24.6109 34.25 25 34C25.7682 33.5199 26.2418 33.5001 27 33ZM0 39V13L23 0V26L0 39ZM0 38V13L22 1V26L0 38ZM1 37V14L21 2V25L1 37ZM11 11C11 13.8405 11 17.1695 11 20C11 22.8305 11 25.1695 11 28C9.27413 29.0002 7.72587 29.9998 6 31C5.44134 31.3301 5 31.4801 5 31C5 30.6899 5.63088 30.4301 6 30C6.36912 29.5699 6 28.5201 6 28C6 26.0396 6 24.9604 6 23C6 21.0396 6 18.9604 6 17C6 16.4699 6.36912 16 6 16C5.63088 15.99 5 15.3101 5 15C5 14.5399 5.44134 14.3201 6 14C7.72587 12.9798 9.26415 12.0002 11 11ZM12 28C12 27.5099 12 26.4801 12 26C12.8779 25.4899 13 24.4003 13 23C13 21.8898 13 21.1102 13 20C13 18.5697 12.8779 18.4899 12 19C12 18.5199 12 17.4801 12 17C11.8603 17.08 12.1397 16.92 12 17C15.771 14.8096 18 15.4993 18 19C18 21.0004 17.2271 22.4497 16 24C15.0323 25.2102 13.8556 26.9198 12 28ZM12 12C12 11.5199 12 11.4801 12 11C13.676 10.0198 15.324 8.98018 17 8C17 9.20023 17 9.79977 17 11C17 11.5001 17.0499 12.76 17 13C16.9002 13.4301 16.3292 13.8 16 14C15.6608 14.2 15.2394 13.6601 15 13C14.6808 12.1298 15.0798 11.06 15 11C14.601 10.6599 13.5064 11.1198 12 12ZM46 39L23 26V0L46 13V39ZM46 38L24 26V1L46 13V38ZM45 37L25 25V2L45 14V37ZM35 11C35 13.8405 35 17.1695 35 20C35 22.8305 35 25.1695 35 28C33.2741 26.9898 30.7259 26.0002 29 25C28.4413 24.6699 29 24.4801 29 24C29 23.6899 28.6309 23.01 29 23C29.3691 22.99 30 23.5201 30 23C30 21.0396 30 18.9604 30 17C30 15.0396 30 12.9604 30 11C30 10.4699 29.3691 9.43008 29 9C28.6309 8.56992 29 8.31006 29 8C28.4413 7.67994 29 7.53991 29 8C30.7159 9.01019 33.2741 9.99981 35 11ZM35 28C35 27.5099 35 27.4901 35 27C35.8779 27.5101 37 27.4003 37 26C37 24.8898 37 23.1102 37 22C37 20.5697 35.8779 19.5101 35 19C35 18.5199 35 18.4801 35 18C35.1397 18.08 35.8603 17.91 36 18C39.771 20.1904 41 23.4993 41 27C41 29.0004 40.237 29.88 39 30C38.0323 30.09 36.8556 29.0802 35 28ZM35 13C35 12.5199 35 11.4801 35 11C36.676 11.9702 38.314 13.0198 40 14C40 15.2002 40 16.7998 40 18C40 18.5001 40.0499 18.82 40 19C39.9002 19.3201 40.3192 19.19 40 19C39.6608 18.8 39.2394 17.9502 39 17C38.6808 15.7598 38.0798 15.15 38 15C37.581 14.1998 36.4964 13.8802 35 13Z" fill="#0A00FA"/>
</g>
<defs>
<clipPath id="clip0_1_4657">
<rect width="126" height="53" fill="white"/>
</clipPath>
</defs>
</svg>