<svg xmlns="http://www.w3.org/2000/svg" width="20" height="20" viewBox="0 0 20 20" fill="none"><g clip-path="url(#a)"><path d="m17.68 13.46-.41-.21c-1.16-.6-2.26-1.16-3.1-1.16-.53 0-.85.21-1.03.4-.28.27-.51.62-.7.92-.69-.35-1.95-1.09-3.35-2.5C7.68 9.5 6.94 8.25 6.6 7.55c.3-.18.64-.42.92-.69.89-.89.12-2.4-.77-4.13l-.21-.41C5.95 1.13 5.38.01 4.04.01c-.25 0-.52.04-.8.13C1.51.65.25 2.78.02 4.55c-.23 1.79 1.49 6.3 5.31 10.12C9.22 18.55 13.38 20 15.09 20c.13 0 .25 0 .36-.02 1.76-.23 3.9-1.49 4.42-3.21.58-1.92-.89-2.66-2.19-3.31" fill="#fff"/></g><defs><clipPath id="a"><path fill="#fff" d="M0 0h20v20H0z"/></clipPath></defs></svg>