<svg width="26" height="20" viewBox="0 0 26 20" fill="none" xmlns="http://www.w3.org/2000/svg">
<g clip-path="url(#clip0_1_1525)">
<path d="M10.3601 9.11C11.0001 9.74 11.5701 10.3 12.0201 10.74C12.2801 11 12.5601 11.13 12.8201 11.14C13.0601 11.14 13.3401 11 13.6001 10.74C15.8001 8.58 21.1901 3.27 23.7701 0.73C23.0901 0.27 22.2801 0 21.4001 0H4.2301C3.3501 0 2.5301 0.27 1.8501 0.73C3.5701 2.42 7.6101 6.41 10.3501 9.1L10.3601 9.11Z" fill="white"/>
<path d="M24.9001 18.1301C25.3601 17.4601 25.6201 16.6401 25.6201 15.7701V4.23008C25.6201 3.34008 25.3401 2.51008 24.8701 1.83008C22.9501 3.72008 19.4601 7.16008 16.8901 9.69008L24.8901 18.1301H24.9001Z" fill="white"/>
<path d="M14.6898 11.8598C14.1398 12.3998 13.4898 12.6998 12.8198 12.7098C12.1198 12.6998 11.4798 12.4098 10.9198 11.8598C10.6098 11.5598 10.2398 11.1898 9.82982 10.7898L1.81982 19.2398C2.49982 19.7198 3.32982 19.9998 4.22982 19.9998H21.3998C22.2898 19.9998 23.1198 19.7198 23.8098 19.2398L15.7898 10.7798C15.3798 11.1898 15.0098 11.5498 14.6998 11.8498L14.6898 11.8598Z" fill="white"/>
<path d="M0.74 1.83984C0.27 2.51984 0 3.33984 0 4.22984V15.7798C0 16.6498 0.27 17.4698 0.72 18.1398L8.72 9.69984C6.01 7.02984 2.35 3.41984 0.74 1.83984Z" fill="white"/>
</g>
<defs>
<clipPath id="clip0_1_1525">
<rect width="25.62" height="20" fill="white"/>
</clipPath>
</defs>
</svg>
