<svg width="20" height="20" viewBox="0 0 20 20" fill="none" xmlns="http://www.w3.org/2000/svg">
<g clip-path="url(#clip0_1_1530)">
<path d="M17.6798 13.4598L17.2698 13.2498C16.1098 12.6498 15.0098 12.0898 14.1698 12.0898C13.6398 12.0898 13.3198 12.2998 13.1398 12.4898C12.8598 12.7598 12.6298 13.1098 12.4398 13.4098C11.7498 13.0598 10.4898 12.3198 9.08983 10.9098C7.67983 9.49977 6.93983 8.24977 6.59983 7.54977C6.89983 7.36977 7.23983 7.12977 7.51983 6.85977C8.40983 5.96977 7.63983 4.45977 6.74983 2.72977L6.53983 2.31977C5.94983 1.12977 5.37983 0.00976562 4.03983 0.00976562C3.78983 0.00976562 3.51983 0.0497656 3.23983 0.139766C1.50983 0.649766 0.249827 2.77977 0.0198272 4.54977C-0.210173 6.33977 1.50983 10.8498 5.32983 14.6698C9.21983 18.5498 13.3798 19.9998 15.0898 19.9998C15.2198 19.9998 15.3398 19.9998 15.4498 19.9798C17.2098 19.7498 19.3498 18.4898 19.8698 16.7698C20.4498 14.8498 18.9798 14.1098 17.6798 13.4598Z" fill="white"/>
</g>
<defs>
<clipPath id="clip0_1_1530">
<rect width="20" height="20" fill="white"/>
</clipPath>
</defs>
</svg>
