<svg width="27" height="20" viewBox="0 0 27 20" fill="none" xmlns="http://www.w3.org/2000/svg">
<path d="M26.2322 3.46154C25.9763 2.05128 24.8246 1.02564 23.4171 0.76923C21.3697 0.384615 17.5308 0 13.436 0C9.34123 0 5.37441 0.256409 3.32701 0.76923C1.91943 1.02564 0.767772 2.05128 0.511848 3.46154C0.255924 5 0 7.17949 0 10C0 12.8205 0.255924 15 0.511848 16.5385C0.767772 17.9487 1.91943 18.9744 3.32701 19.2308C5.50237 19.6154 9.34123 20 13.436 20C17.5308 20 21.3697 19.7436 23.545 19.2308C24.9526 18.9744 26.1043 17.9487 26.3602 16.5385C26.6161 15 26.872 12.6923 27 10C27 7.17949 26.6161 5 26.2322 3.46154ZM9.98104 14.359V5.51282L17.6588 9.87179L9.98104 14.2308V14.359Z" fill="white"/>
</svg>
