<svg xmlns="http://www.w3.org/2000/svg" width="36" height="36" viewBox="0 0 36 36" fill="none">
  <path d="M14.5501 17.5598C15.4501 18.4498 16.2501 19.2298 16.8801 19.8498C17.2501 20.2098 17.6301 20.3998 18.0001 20.4098C18.3401 20.4098 18.7201 20.2098 19.0901 19.8498C22.1801 16.8198 29.7501 9.34977 33.3801 5.77977C32.4301 5.13977 31.2801 4.75977 30.0501 4.75977H5.9401C4.7001 4.75977 3.5501 5.13977 2.6001 5.78977C5.0101 8.15977 10.7001 13.7698 14.5501 17.5498V17.5598Z" fill="#00A3FF"/>
  <path d="M34.99 30.2498C35.63 29.2998 36 28.1598 36 26.9298V10.7098C36 9.45984 35.61 8.29984 34.95 7.33984C32.25 9.99984 27.35 14.8298 23.74 18.3798L34.99 30.2498Z" fill="#00A3FF"/>
  <path d="M20.6401 21.4299C19.8601 22.1899 18.9501 22.5999 18.0101 22.6199C17.0301 22.5999 16.1201 22.1899 15.3501 21.4299C14.9201 20.9999 14.4001 20.4899 13.8301 19.9299L2.56006 31.8099C3.52006 32.4799 4.68006 32.8699 5.94006 32.8699H30.0601C31.3201 32.8699 32.4801 32.4799 33.4401 31.8099L22.1701 19.9199C21.5901 20.4899 21.0701 20.9999 20.6401 21.4199V21.4299Z" fill="#00A3FF"/>
  <path d="M1.05 7.34961C0.39 8.30961 0 9.45961 0 10.7096V26.9296C0 28.1596 0.37 29.2996 1.01 30.2496L12.25 18.3896C8.45 14.6396 3.3 9.56961 1.05 7.34961Z" fill="#00A3FF"/>
</svg>