<svg xmlns="http://www.w3.org/2000/svg" width="36" height="36" viewBox="0 0 36 36" fill="none">
  <g clip-path="url(#clip0_101_4106)">
    <path d="M29.1 4.39C26.26 1.56 22.49 0 18.48 0C14.47 0 10.7 1.56 7.85996 4.4C5.01996 7.24 3.45996 11.01 3.45996 15.02C3.45996 19.03 5.01996 22.81 7.85996 25.64L18.06 35.83C18.18 35.95 18.33 36.01 18.48 36.01C18.63 36.01 18.79 35.95 18.9 35.83L29.1 25.64C34.95 19.78 34.95 10.25 29.1 4.4V4.39ZM23.13 19.67C21.89 20.91 20.23 21.6 18.47 21.6C16.71 21.6 15.06 20.92 13.81 19.67C11.24 17.1 11.24 12.93 13.81 10.36C15.05 9.12 16.71 8.43 18.47 8.43C20.23 8.43 21.88 9.11 23.13 10.36C25.69 12.93 25.69 17.1 23.13 19.67Z" fill="#00A3FF"/>
  </g>
  <defs>
    <clipPath id="clip0_101_4106">
      <rect width="36" height="36" fill="white"/>
    </clipPath>
  </defs>
</svg>