<svg xmlns="http://www.w3.org/2000/svg" width="46" height="53" viewBox="0 0 46 53" fill="none">
  <path fill-rule="evenodd" clip-rule="evenodd" d="M46 40L23 53L0 40L23 27L46 40ZM45 40L23 53L1 40L23 27L45 40ZM43 40L23 52L3 40L23 28L43 40ZM13 43C13.5987 43.1 14.4013 42.9 15 43C16.0976 43.7 16.9024 44.3 18 45C18.3991 45.2 18.7007 45.9 19 46C19.1996 46 19.6009 46.1 20 46C19.9002 46 20.2993 46 20 46C20.2993 45.8 20.2993 46.2 20 46C19.5011 46.3 19.4989 46.7 19 47C18.7007 47.2 18.2993 47.1 18 47C17.8004 47.2 17.9002 46.9 18 47C18.0998 46.7 18.2993 46.2 18 46C17.9002 45.9 17.2993 46.1 17 46C15.7028 45.2 14.397 43.9 13 43ZM22 42C21.4013 41.9 20.6985 41.1 20 41C19.9002 40.9 19.2993 41.2 19 41C18.7007 40.8 18.1996 40.1 18 40C17.7007 39.8 18.1996 40.1 18 40C17.7007 39.8 16.4989 39.9 16 40C15.5011 40.1 15.0998 40.1 15 40C14.7007 39.8 15.7007 39.2 16 39C16.5987 38.7 16.4013 38.4 17 38C17.2993 37.8 17.7007 37.9 18 38C18.0998 38.1 18.0998 38.7 18 39C17.9002 39.3 17.8004 39.8 18 40C18.2993 40.2 18.6009 39.8 19 40C19.2993 40.2 20.5011 40.7 21 41C21.5987 41.2 21.8004 41.9 22 42ZM22 42C22.898 42.5 24.102 43.5 25 44C24.4013 44.3 23.5987 44.7 23 45C21.1041 44.7 19.8959 44.3 18 44C16.1041 43.7 13.8959 43.3 12 43C11.8004 43 11.2993 42.9 11 43C10.7007 43.1 10.0998 43.1 10 43C9.80043 42.9 9.70065 42.1 10 42C11.0976 41.4 11.9024 41.6 13 41C15.9935 41.4 19.1063 41.5 22 42ZM26 41C25.9002 41 26.0998 41.1 26 41C25.3015 41.4 24.898 41.1 24 41C23.2017 41 22.6985 41.4 22 41C21.3015 40.6 20 39.5 20 39C19.9002 38.5 20.3015 38.4 21 38C21.0998 38.1 21.9002 38 22 38C21.9002 38.1 21.9002 38.9 22 39C21.7007 38.9 22 39 22 39C22.898 39.5 24.0022 39.5 25 40C25.1996 40.1 25 41 25 41C25.0998 41.2 25.9002 41.1 26 41ZM26 41C25.9002 40.9 26.0998 41 26 41C26.0998 40.9 26.0998 40.1 26 40C26 40 26.1996 40.1 26 40C25.102 39.5 23.9978 39.5 23 39C22.6009 38.8 22.1996 37.9 22 38C21.9002 37.9 22.0998 38 22 38C22.6985 37.6 23.2017 37.9 24 38C24.7983 38 25.3015 37.6 26 38C26.6985 38.4 26.9002 39.5 27 40C27.1996 40.3 26.6985 40.6 26 41ZM26 43C25.9002 43 25.0998 43.1 25 43C24.9002 42.9 25 42 25 42C24.9002 42 25 42 25 42C25.9978 41.4 27.0022 41.5 28 41C28.0998 40.9 28.9002 40 29 40C29.0998 40 28.9002 40.9 29 41C28.9002 40.9 29.0998 41 29 41C29.0998 41.1 30 41 30 41C30 41.1 29.0998 41 29 41C28.0022 41.6 26.9978 42.5 26 43C26.0998 43 25.9002 43.1 26 43C26.1996 43 25.9002 43 26 43ZM27 33C28.1974 33.7 29.8026 34.3 31 35C32.1974 35.7 32.8026 36.3 34 37C34.2994 37.2 34.7006 37.1 35 37C35.2994 36.9 35.8004 36.9 36 37C36.2994 37.2 36.3991 37.7 36 38C35.0022 38.5 33.898 38.5 33 39C32.6009 39.2 32.2994 39.2 32 39C31.8004 38.9 31.9002 39.1 32 39C31.9002 39.1 32.0998 38.9 32 39C32.0998 38.9 32.1996 38.1 32 38C31.0022 37.5 29.9978 37.6 29 37C28.0022 36.4 26.9978 35.6 26 35C25.7007 34.8 25.2993 34.9 25 35C24.7007 35.1 24.0998 35.1 24 35C23.7007 34.8 24.6009 34.3 25 34C25.7983 33.5 26.2017 33.5 27 33ZM0 39V13L23 0V26L0 39ZM0 38V13L22 1V26L0 38ZM1 37V14L21 2V25L1 37ZM11 11C11 13.8 11 17.2 11 20C11 22.8 11 25.2 11 28C9.30369 29 7.69631 30 6 31C5.4013 31.3 5 31.5 5 31C5 30.7 5.60087 30.4 6 30C6.39913 29.6 6 29.5 6 29C6 27 6 25 6 23C6 21 6 19 6 17C6 16.5 6.39913 16 6 16C5.60087 16 5 15.3 5 15C5 14.5 5.50108 14.3 6 14C7.69631 13 9.2039 12 11 11ZM12 28C12 27.5 12 26.5 12 26C12.898 25.5 13 24.4 13 23C13 21.9 13 21.1 13 20C13 18.6 12.898 18.5 12 19C12 18.5 12 17.4 12 17C11.9002 17 12.0998 16.9 12 17C15.7918 14.8 18 15.5 18 19C18 21 17.2972 22.5 16 24C15.102 25.2 13.8959 26.9 12 28ZM12 12C12 11.5 12 11.4 12 11C13.6963 10 15.3037 9 17 8C17 9.2 17 10.8 17 12C17 12.5 17.0998 12.8 17 13C16.9002 13.4 16.2993 13.8 16 14C15.7007 14.2 15.2993 13.7 15 13C14.7007 12.1 15.0998 11.1 15 11C14.6009 10.7 13.4967 11.2 12 12ZM46 39L23 26V0L46 13V39ZM46 38L24 26V1L46 13V38ZM45 37L25 25V2L45 14V37ZM35 11C35 13.8 35 17.2 35 20C35 22.8 35 25.2 35 28C33.3037 27 30.6963 26 29 25C28.4013 24.7 29 24.5 29 24C29 23.7 28.6009 23 29 23C29.3991 23 30 23.5 30 23C30 21 30 19 30 17C30 15 30 13 30 11C30 10.5 29.2993 9.4 29 9C28.6009 8.6 29 8.3 29 8C29 7.5 29.5011 7.7 30 8C31.5965 9 33.3037 10 35 11ZM35 28C35 27.5 35 27.5 35 27C35.898 27.5 37 27.4 37 26C37 24.9 37 23.1 37 22C37 20.6 35.898 19.5 35 19C35 18.5 35 18.4 35 18C35.0998 18.1 35.9002 18 36 18C39.7918 20.2 41 23.5 41 27C41 29 41.1974 29.9 40 30C39.0022 30.1 36.8959 29.1 35 28ZM35 13C35 12.5 35 12.4 35 12C36.6963 13 38.4035 13 40 14C40 15.2 40 16.8 40 18C40 18.5 40.0998 18.8 40 19C39.9002 19.3 40.2994 19.2 40 19C39.7006 18.8 39.2994 18.9 39 18C38.7006 16.8 38.0998 15.2 38 15C37.7006 14.2 36.4967 13.9 35 13Z" fill="white"/>
</svg>