<svg xmlns="http://www.w3.org/2000/svg" width="36" height="36" viewBox="0 0 36 36" fill="none">
  <g clip-path="url(#clip0_101_4110)">
    <path d="M31.7 24.2394L30.97 23.8694C28.88 22.7994 26.91 21.7894 25.41 21.7894C24.47 21.7894 23.88 22.1694 23.56 22.4994C23.06 22.9894 22.64 23.6094 22.31 24.1394C21.06 23.5194 18.82 22.1894 16.3 19.6694C13.78 17.1394 12.44 14.8994 11.83 13.6494C12.36 13.3294 12.98 12.8994 13.47 12.4094C15.07 10.8094 13.69 8.11938 12.1 4.99937L11.73 4.26937C10.66 2.12937 9.65997 0.109375 7.23997 0.109375C6.78997 0.109375 6.30997 0.189375 5.79997 0.339375C2.70997 1.27937 0.449974 5.10938 0.0399743 8.25938C-0.370026 11.4594 2.70997 19.5494 9.55997 26.3994C16.53 33.3594 23.99 35.9594 27.06 35.9594C27.29 35.9594 27.51 35.9494 27.7 35.9194C30.86 35.5094 34.69 33.2494 35.62 30.1594C36.66 26.7094 34.02 25.3994 31.7 24.2294V24.2394Z" fill="#00A3FF"/>
  </g>
  <defs>
    <clipPath id="clip0_101_4110">
      <rect width="36" height="36" fill="white"/>
    </clipPath>
  </defs>
</svg>