<svg xmlns="http://www.w3.org/2000/svg" width="36" height="37" viewBox="0 0 36 37" fill="none">
  <path d="M28.4212 3.66602H8.5265C5.25279 3.66602 2.84229 6.10628 2.84229 9.35023V27.3502C2.84229 30.5942 5.25279 33.0344 8.5265 33.0344H28.4212C31.6949 33.0344 34.1054 30.5942 34.1054 27.3502V9.35023C34.1054 6.10628 31.6949 3.66602 28.4212 3.66602Z" fill="#00A3FF"/>
  <path d="M8.73463 18.8899C8.73463 18.8899 17.2967 15.3298 19.9565 14.2029C20.9654 13.7334 23.6972 12.3281 23.6972 12.3281C23.6972 12.3281 25.7509 11.6691 25.5675 13.2655C25.5675 13.9229 24.9992 16.4484 24.6323 18.8899C24.082 22.3645 23.6972 26.3891 23.6972 26.3891C23.6972 26.3891 23.5875 27.1387 22.762 27.3265C22.0283 27.5143 21.1669 26.5769 20.8917 26.3891C20.7083 26.2952 17.4082 24.6099 16.2159 23.5769C15.9408 23.2952 15.5739 22.3595 16.2159 21.7021C17.8668 20.1996 19.6994 18.142 20.8917 17.0151C21.442 16.4517 22.2495 15.4187 19.9565 17.0151C16.7464 19.2689 13.4104 20.7647 13.4104 20.7647C13.4104 20.7647 11.9807 21.2343 10.605 20.7647C9.22919 20.3891 7.79947 19.8273 7.79947 19.8273C7.79947 19.8273 6.90028 19.6412 8.73463 18.8899Z" fill="white"/>
</svg>