<svg xmlns="http://www.w3.org/2000/svg" width="36" height="37" viewBox="0 0 36 37" fill="none">
  <path d="M27.2301 3.66602H7.8221C4.54839 3.66602 1.89453 6.29575 1.89453 9.5397V27.1608C1.89453 30.4047 4.54839 33.0344 7.8221 33.0344H27.2301C30.5038 33.0344 33.1577 30.4047 33.1577 27.1608V9.5397C33.1577 6.29575 30.5038 3.66602 27.2301 3.66602Z" fill="#00A3FF"/>
  <path fill-rule="evenodd" clip-rule="evenodd" d="M27.9819 13.1335C28.1725 12.6634 27.9819 12.2874 27.3145 12.2874H25.0263C24.4543 12.2874 24.1683 12.5694 24.0729 12.9455C24.0729 12.9455 22.9288 15.7659 21.2127 17.5521C20.6407 18.1162 20.45 18.2102 20.164 18.2102C19.878 18.2102 19.7826 18.0222 19.7826 17.5521V13.0395C19.7826 12.4754 19.5919 12.1934 19.1152 12.1934H15.4923C15.111 12.1934 14.9203 12.4754 14.9203 12.7574C14.9203 13.3215 15.7783 13.4155 15.8737 14.9198V18.2102C15.8737 18.9623 15.7783 19.0564 15.4923 19.0564C14.7296 19.0564 12.8228 16.2359 11.6787 13.0395C11.488 12.4754 11.202 12.1934 10.63 12.1934H8.34182C7.67444 12.1934 7.5791 12.4754 7.5791 12.8515C7.5791 13.4155 8.34182 16.424 11.202 20.3725C13.1088 23.0989 15.7783 24.5091 18.1618 24.5091C20.5453 24.5091 19.7826 24.2271 19.7826 23.663V21.5947C19.7826 20.9366 19.878 20.8426 20.3547 20.8426C20.8314 20.8426 21.3081 21.0306 22.6428 22.2528C24.1683 23.757 24.4543 24.5091 25.3123 24.5091H27.6005C28.2679 24.5091 28.5539 24.2271 28.3632 23.569C28.1725 22.9109 27.4098 21.9708 26.4564 20.9366C25.8844 20.2785 25.1217 19.6204 24.8356 19.3384C24.4543 18.8683 24.5496 18.6803 24.8356 18.3042C24.8356 18.3042 27.6005 14.4497 27.8865 13.0395L27.9819 13.1335Z" fill="white"/>
</svg>