<svg xmlns="http://www.w3.org/2000/svg" width="36" height="36" viewBox="0 0 36 36" fill="none">
  <path d="M28.1776 2.8418H8.76961C5.4959 2.8418 2.84204 5.47153 2.84204 8.71548V26.3365C2.84204 29.5805 5.4959 32.2102 8.76961 32.2102H28.1776C31.4513 32.2102 34.1052 29.5805 34.1052 26.3365V8.71548C34.1052 5.47153 31.4513 2.8418 28.1776 2.8418Z" fill="#00A3FF"/>
  <path d="M18.4783 8.52539C13.5118 8.52539 9.47363 12.5615 9.47363 17.5254C9.47363 19.0749 9.87281 20.5965 10.634 21.9419L9.4922 26.0244C9.45507 26.1543 9.4922 26.3027 9.58503 26.4048C9.6593 26.479 9.76141 26.5254 9.86352 26.5254C9.89137 26.5254 9.92851 26.5254 9.95636 26.5161L14.2173 25.4584C15.517 26.1543 16.9837 26.5254 18.469 26.5254C23.4355 26.5254 27.4736 22.4893 27.4736 17.5254C27.4736 12.5615 23.4355 8.52539 18.469 8.52539H18.4783ZM23.0084 20.6986C22.8135 21.2275 21.8945 21.7192 21.4489 21.7842C21.0497 21.8398 20.5484 21.8677 19.9914 21.6914C19.6572 21.5893 19.2209 21.4501 18.6732 21.2089C16.3524 20.2161 14.8393 17.9151 14.7279 17.7666C14.6165 17.6182 13.781 16.5326 13.781 15.4099C13.781 14.2872 14.3751 13.7398 14.5886 13.5079C14.8022 13.2759 15.0528 13.2202 15.2013 13.2202C15.3499 13.2202 15.5077 13.2202 15.6469 13.2202C15.7862 13.2202 15.9811 13.1646 16.1668 13.6099C16.3617 14.0646 16.8259 15.1872 16.8816 15.3079C16.9373 15.4192 16.9744 15.5584 16.9001 15.7068C16.8259 15.8553 16.7887 15.9573 16.6681 16.0872C16.5474 16.2171 16.4267 16.3842 16.3246 16.4862C16.2132 16.5976 16.0925 16.7275 16.2225 16.9501C16.3617 17.1821 16.8166 17.9244 17.5128 18.5275C18.3947 19.3068 19.1374 19.5481 19.3695 19.6594C19.6015 19.7708 19.7315 19.7522 19.8707 19.6037C20.01 19.4553 20.4463 18.9357 20.6041 18.713C20.7619 18.4811 20.9105 18.5182 21.124 18.6017C21.3375 18.6759 22.47 19.2326 22.7021 19.3439C22.9342 19.4553 23.0827 19.511 23.1477 19.613C23.2034 19.7058 23.2034 20.1604 23.0084 20.6986Z" fill="white"/>
</svg>