<svg xmlns="http://www.w3.org/2000/svg" width="36" height="37" viewBox="0 0 36 37" fill="none">
  <path d="M28.1779 3.66602H8.76986C5.49615 3.66602 2.84229 6.29575 2.84229 9.5397V27.1608C2.84229 30.4047 5.49615 33.0344 8.76986 33.0344H28.1779C31.4516 33.0344 34.1054 30.4047 34.1054 27.1608V9.5397C34.1054 6.29575 31.4516 3.66602 28.1779 3.66602Z" fill="#00A3FF"/>
  <path d="M27.8554 13.8696C27.6668 12.8007 26.8182 12.0234 25.781 11.8291C24.2724 11.5376 21.4438 11.2461 18.4266 11.2461C15.4094 11.2461 12.4865 11.4404 10.9779 11.8291C9.94068 12.0234 9.09209 12.8007 8.90352 13.8696C8.71494 15.0356 8.52637 16.6874 8.52637 18.825C8.52637 20.9627 8.71494 22.6145 8.90352 23.7805C9.09209 24.8493 9.94068 25.6267 10.9779 25.821C12.5807 26.1125 15.4094 26.404 18.4266 26.404C21.4438 26.404 24.2724 26.2097 25.8753 25.821C26.9125 25.6267 27.7611 24.8493 27.9497 23.7805C28.1382 22.6145 28.3268 20.8655 28.4211 18.825C28.4211 16.6874 28.1382 15.0356 27.8554 13.8696ZM15.8808 22.1287V15.4242L21.5381 18.7279L15.8808 22.0315V22.1287Z" fill="white"/>
</svg>